<svg xmlns="http://www.w3.org/2000/svg" width="13px" height="13px" viewBox="0 0 2048 2048">
    <rect fill-opacity="0.7" x="0" y="0" width="2048" height="2048" rx="256" ry="256" fill="#40b6e0"/>
    <g transform="scale(0.4)">
        <path fill-opacity="0.9" transform="translate(124.59000000000003, 3280) rotate(180) scale(-1, 1)" fill="#231f20"
              d="M137 1493h203v-572h553v572h203v-1493h-203v751h-553v-751h-203v1493z"/>
        <path fill-opacity="0.9" transform="translate(1337.5900000000001, 3280) rotate(180) scale(-1, 1)" fill="#231f20"
              d="M47 1493h1139v-170h-467v-1323h-203v1323h-469v170z"/>
        <path fill-opacity="0.9" transform="translate(2610.59, 3280) rotate(180) scale(-1, 1)" fill="#231f20"
              d="M47 1493h1139v-170h-467v-1323h-203v1323h-469v170z"/>
        <path fill-opacity="0.9" transform="translate(3803.59, 3280) rotate(180) scale(-1, 1)" fill="#231f20"
              d="M399 1327v-561h234q140 0 218.5 74t78.5 207t-78 206.5t-219 73.5h-234zM197 1493h436q250 0 379 -113.5t129 -332.5q0 -221 -128.5 -334t-379.5 -113h-234v-600h-202v1493z"/>
    </g>
</svg>