<svg xmlns="http://www.w3.org/2000/svg" width="16px" height="16px" viewBox="0 0 2048 2048">
    <rect fill-opacity="1" x="0" y="0" width="2048" height="2048" rx="256" ry="256" fill="#f9f1f9"/>
    <g transform="scale(0.32)">
        <path fill-opacity="1" transform="translate(147.55999999999995, 3880) rotate(180) scale(-1, 1)" fill="#8c00ff"
              d="M436 166q255 0 356 125.5t101 453.5q0 331 -100.5 456.5t-356.5 125.5h-96v-1161h96zM440 1493q342 0 504 -182t162 -566q0 -382 -162 -563.5t-504 -181.5h-303v1493h303z"/>
        <path fill-opacity="1" transform="translate(1380.56, 3880) rotate(180) scale(-1, 1)" fill="#8c00ff"
              d="M147 573v920h203v-1012q0 -109 6 -155.5t21 -71.5q32 -59 92.5 -89t146.5 -30q87 0 147 30t93 89q15 25 21 71t6 154v1014h202v-920q0 -229 -28.5 -325.5t-98.5 -159.5q-66 -59 -151 -88t-191 -29q-105 0 -190 29t-152 88q-69 62 -98 160.5t-29 324.5z"/>
        <path fill-opacity="1" transform="translate(2613.56, 3880) rotate(180) scale(-1, 1)" fill="#8c00ff"
              d="M369 753v-587h239q176 0 251 61.5t75 202.5q0 186 -79 254.5t-247 68.5h-239zM369 1327v-410h235q146 0 211.5 56t65.5 141q0 113 -64.5 163t-212.5 50h-235zM166 1493h442q229 0 353 -99t124 -280q0 -97 -65.5 -176t-196.5 -99q147 -22 230.5 -125.5t83.5 -303.5 q0 -203 -133 -306.5t-396 -103.5h-442v1493z"/>
        <path fill-opacity="1" transform="translate(3846.56, 3880) rotate(180) scale(-1, 1)" fill="#8c00ff"
              d="M369 753v-587h239q176 0 251 61.5t75 202.5q0 186 -79 254.5t-247 68.5h-239zM369 1327v-410h235q146 0 211.5 56t65.5 141q0 113 -64.5 163t-212.5 50h-235zM166 1493h442q229 0 353 -99t124 -280q0 -97 -65.5 -176t-196.5 -99q147 -22 230.5 -125.5t83.5 -303.5 q0 -203 -133 -306.5t-396 -103.5h-442v1493z"/>
        <path fill-opacity="1" transform="translate(5079.5599999999995, 3880) rotate(180) scale(-1, 1)" fill="#8c00ff"
              d="M905 745q0 329 -67.5 470t-221.5 141q-153 0 -220.5 -141t-67.5 -470q0 -328 67.5 -469t220.5 -141q154 0 221.5 140.5t67.5 469.5zM1116 745q0 -390 -123.5 -582t-376.5 -192t-376 191t-123 583q0 391 123.5 583t375.5 192q253 0 376.5 -192t123.5 -583z"/>
    </g>
</svg>