<svg xmlns="http://www.w3.org/2000/svg" width="16px" height="16px" viewBox="0 0 2048 2048">
    <rect fill-opacity="1" x="0" y="0" width="2048" height="2048" rx="256" ry="256" fill="#e5f8ff"/>
    <g transform="scale(0.6)">
        <path fill-opacity="1" transform="translate(554.01, 2395.68) rotate(180) scale(-1, 1)" fill="#00e9fa"
              d="M0 1493h197l143 -1212l170 802h211l172 -804l143 1214h197l-223 -1493h-191l-203 887l-202 -887h-191z"/>
        <path fill-opacity="1" transform="translate(1787.01, 2395.68) rotate(180) scale(-1, 1)" fill="#00e9fa"
              d="M1012 1442v-205q-92 59 -184.5 89t-186.5 30q-143 0 -226 -66.5t-83 -179.5q0 -99 54.5 -151t203.5 -87l106 -24q210 -49 306 -154t96 -286q0 -213 -132 -325t-384 -112q-105 0 -211 22.5t-213 67.5v215q115 -73 217.5 -107t206.5 -34q153 0 238 68.5t85 191.5 q0 112 -58.5 171t-203.5 91l-108 25q-208 47 -302 142t-94 255q0 200 134.5 320.5t357.5 120.5q86 0 181 -19.5t200 -58.5z"/>
    </g>
</svg>